<svg width="20" height="22" viewBox="0 0 20 22" fill="none" xmlns="http://www.w3.org/2000/svg">
<path fill-rule="evenodd" clip-rule="evenodd" d="M19.3485 18.9733L17.9343 20.3875L10.2091 12.6622L2.48379 20.3875L1.06958 18.9733L8.79485 11.248L1.06958 3.52273L2.48379 2.10852L10.2091 9.83379L17.9343 2.10852L19.3485 3.52273L11.6233 11.248L19.3485 18.9733Z" fill="#979797"/>
<mask id="mask0_926_3509" style="mask-type:alpha" maskUnits="userSpaceOnUse" x="1" y="2" width="19" height="19">
<path fill-rule="evenodd" clip-rule="evenodd" d="M19.3485 18.9733L17.9343 20.3875L10.2091 12.6622L2.48379 20.3875L1.06958 18.9733L8.79485 11.248L1.06958 3.52273L2.48379 2.10852L10.2091 9.83379L17.9343 2.10852L19.3485 3.52273L11.6233 11.248L19.3485 18.9733Z" fill="white"/>
</mask>
<g mask="url(#mask0_926_3509)">
<rect width="20" height="22" fill="white"/>
</g>
</svg>
